<svg width="452" height="452" viewBox="0 0 452 452" xmlns="http://www.w3.org/2000/svg"><title>logo-honestica</title><g fill="#FF6742" fill-rule="evenodd"><path d="M126.609 199.586c77.948 0 111.252 56.854 134.638 93.703 26.927 42.517 66.61 70.369 116.214 70.369 28.334 0 53.571-8.918 73.847-24.078V121.198c-20.275-15.55-45.512-24.74-73.847-24.74-53.855 0-107.003 31.888-133.93 94.248l-40.391-26.219C239.988 85.121 304.471 45.438 377.46 45.438c26.743 0 51.655 5.78 73.847 16.143V0H0v199.586h126.609zM69.641 51.745h53.69v112.048h-53.69V51.745z"/><path d="M377.46 411.798c-96.373 0-141.015-61.527-171.488-110.421-19.131-30.471-41.098-51.602-79.363-51.602h-.819H123.331v156.012H69.642V250.553H.001v200.754h451.307v-55.285c-22.193 10.146-47.106 15.776-73.848 15.776z"/></g></svg>